<?xml version="1.0" encoding="iso-8859-1"?>
<!-- Uploaded to: SVG Repo, www.svgrepo.com, Generator: SVG Repo Mixer Tools -->
<svg height="800px" width="800px" version="1.1" id="Layer_1" xmlns="http://www.w3.org/2000/svg" xmlns:xlink="http://www.w3.org/1999/xlink" 
	 viewBox="0 0 512 512" xml:space="preserve">
<path style="fill:#F2F2F3;" d="M512,256c0,0-64,166.4-256,166.4S0,256,0,256S64,89.6,256,89.6S512,256,512,256z"/>
<path style="fill:#DEDDE0;" d="M256,422.4C64,422.4,0,256,0,256S64,89.6,256,89.6"/>
<circle style="fill:#00D7DF;" cx="256" cy="256" r="128"/>
<path style="fill:#00A1A7;" d="M256,384c-70.693,0-128-57.307-128-128s57.307-128,128-128"/>
<circle style="fill:#616064;" cx="256" cy="256" r="76.8"/>
<path d="M256,332.8c-42.415,0-76.8-34.385-76.8-76.8s34.385-76.8,76.8-76.8"/>
<g>
	<circle style="fill:#FFFFFF;" cx="313.6" cy="211.2" r="19.2"/>
	<circle style="fill:#FFFFFF;" cx="243.2" cy="307.2" r="38.4"/>
</g>
</svg>